<svg width="162" height="194" viewBox="0 0 162 194" fill="none" xmlns="http://www.w3.org/2000/svg">
<path d="M31.9431 93.6736C31.4977 94.1595 31.4977 94.2405 31.7406 94.6455C31.9431 94.9695 32.0646 95.9819 32.1456 98.6546L32.2266 102.218L32.7935 102.704C33.077 102.947 33.725 103.271 34.2109 103.393C35.6283 103.757 36.8432 104.446 37.1266 105.053C37.3696 105.539 37.3291 105.701 37.0861 106.106C36.4787 107.037 35.7093 107.199 32.0241 107.199C28.0555 107.199 27.61 107.078 25.9092 105.215C24.2893 103.514 23.034 101.53 19.4298 95.091C17.8099 92.2562 17.6885 91.6488 18.4579 90.9199C18.8628 90.5554 22.629 89.219 23.3174 89.219C23.3984 89.219 23.7629 88.976 24.0464 88.6926C24.4918 88.2471 24.6943 88.2066 25.2613 88.2876C25.8282 88.3686 26.1522 88.2876 27.4076 87.4372C29.3109 86.1818 31.1332 84.238 32.9555 81.5652C34.4944 79.2974 36.6407 77.0701 38.787 75.5313C39.5159 75.0048 41.6622 73.628 43.606 72.4536C45.5094 71.2792 47.2507 70.1858 47.4532 69.9833C47.6557 69.8213 48.6681 68.5254 49.64 67.1486C51.9078 64.0304 53.7706 61.7221 56.4433 58.6444L58.5491 56.2551L58.1847 55.7691C57.9822 55.4857 57.7797 55.1617 57.7797 55.0402C57.7797 54.6757 59.4401 52.6104 61.5459 50.3426C63.0442 48.7228 63.6517 47.8724 63.9756 47.1029C64.1781 46.536 64.7451 45.4021 65.231 44.6327C67.5393 40.745 69.5641 38.6797 74.0997 35.4805C76.8939 33.5367 78.8782 31.7954 80.8626 29.4871C81.875 28.3127 83.2113 26.8953 83.8593 26.2879C84.5072 25.7209 85.8031 24.2631 86.8155 23.0482C87.8279 21.8738 89.6502 19.93 90.8651 18.7556C92.08 17.5812 93.0519 16.6093 93.0114 16.5688C92.9709 16.5283 92.08 15.9209 91.0676 15.2324C88.8808 13.7341 85.9246 11.0208 84.3047 8.915C83.5353 7.9026 83.0899 7.45714 82.8469 7.53813C82.6849 7.57863 80.0121 8.10508 77.0154 8.71252C70.698 9.96791 65.4335 11.2638 64.5021 11.7497C63.4492 12.3167 59.926 16.2448 59.5211 17.2572C59.3591 17.7432 59.0351 18.5531 58.8731 19.0796C58.6706 19.606 58.4277 20.092 58.3062 20.1325C58.1847 20.173 57.8202 20.011 57.4962 19.7275C57.0103 19.3225 56.9293 19.1201 56.9698 18.2696C56.9698 17.7432 57.1318 16.8118 57.2938 16.2448C57.4557 15.6779 57.4962 15.1919 57.4557 15.1919C57.4152 15.1919 55.7954 15.7184 53.9326 16.4068C50.3284 17.7027 49.64 17.7837 49.64 16.8928C49.64 16.4473 49.9639 16.2448 52.1912 15.1109C53.6086 14.382 54.5805 13.815 54.378 13.896C49.6805 15.3134 47.7366 15.8399 47.4937 15.7589C47.3317 15.7184 47.0887 15.5564 46.9672 15.3539C46.6433 14.8275 47.0077 14.5845 49.802 13.4911C51.1788 12.9646 52.1912 12.4787 52.1102 12.4787C52.0293 12.4382 50.8549 12.6407 49.559 12.8836C47.1697 13.3696 46.4408 13.3291 46.4408 12.7217C46.4408 12.2357 47.0077 11.9522 49.1945 11.3853C51.3003 10.8183 51.3408 10.8183 50.2879 10.8183C49.0325 10.8183 48.4656 10.5349 48.4656 10.0084C48.4656 9.60344 48.5466 9.56295 50.6524 9.19848C51.3813 9.07699 53.2036 8.63153 54.702 8.18608C56.5648 7.61913 58.1037 7.33565 59.5211 7.21416C61.2219 7.09268 62.2748 6.8092 65.393 5.83729C67.4988 5.18935 72.1964 3.6505 75.8815 2.47611C79.5667 1.30171 82.7254 0.248814 82.8874 0.167822C83.3733 -0.115652 84.3047 -0.0346591 85.1552 0.370303C85.6006 0.572784 87.0585 1.18023 88.3949 1.70668C89.7312 2.19263 91.6346 3.08355 92.6875 3.61C93.7404 4.13645 94.6313 4.58191 94.7528 4.58191C95.0362 4.58191 96.9396 6.03977 98.8429 7.74061C99.8148 8.59103 100.665 9.19848 100.908 9.19848C102.447 9.19848 104.067 10.1704 105.889 12.1547L107.145 13.4911L107.833 13.1266C108.926 12.5597 110.911 10.3324 112.693 7.65962C114.596 4.86538 115.892 3.6505 117.471 3.04305C120.832 1.78767 123.748 2.71908 126.218 5.91828C128 8.22657 129.499 11.7092 129.499 13.6531C129.499 14.9489 129.903 15.9209 130.835 16.8118C131.442 17.4192 131.645 17.7027 131.442 17.8242C131.321 17.9052 130.146 17.9862 128.891 17.9862C126.947 17.9862 126.461 18.0672 125.773 18.4316C124.598 19.0391 123.789 20.011 123.06 21.6308C122.695 22.4407 122.29 23.0887 122.128 23.0887C122.007 23.0887 121.561 22.9267 121.156 22.6837L120.468 22.2788L120.022 22.8052C119.779 23.0887 119.455 23.2507 119.293 23.2102C119.172 23.1697 118.848 23.2507 118.605 23.4127C118.362 23.5746 117.957 23.6961 117.714 23.6961C117.471 23.6961 116.823 23.9391 116.297 24.3036C115.77 24.6275 115.203 24.911 114.96 24.911C114.515 24.911 113.462 23.8581 112.976 22.9672C112.652 22.3193 112.612 22.3193 112.085 22.6027C110.627 23.3722 110.627 23.3722 110.992 25.8424C111.316 28.0292 111.316 28.0697 112.288 29.1631C113.543 30.54 114.11 31.8359 114.393 33.7392C114.636 35.44 114.92 36.5739 115.203 37.3838L115.406 37.9103L116.742 37.0599C117.512 36.5739 119.536 35.4805 121.237 34.6706C124.679 33.0103 126.947 31.6334 127.555 30.783C127.919 30.2565 128.689 27.7862 129.175 25.6399C129.296 25.1135 129.256 24.3441 129.175 23.6556C128.932 22.0763 128.932 21.7928 129.296 21.6713C129.863 21.4688 131.361 23.3722 131.361 24.3846C131.361 24.587 131.402 24.83 131.483 24.911C131.564 24.992 132.617 24.0606 133.872 22.8052C135.654 21.0639 136.18 20.6184 136.585 20.6589C136.828 20.6589 137.071 20.8614 137.112 21.0234C137.112 21.1854 136.545 22.1168 135.735 23.0887C134.965 24.0606 134.318 24.8705 134.318 24.911C134.318 24.9515 135.37 24.0201 136.666 22.8862C138.975 20.8209 139.744 20.4159 139.906 21.1854C139.906 21.3473 139.056 22.5217 138.003 23.7771C136.747 25.235 136.342 25.8424 136.828 25.4375C139.582 23.1292 140.352 22.5622 140.675 22.6432C141.404 22.7647 141.121 23.3722 139.704 24.7895C138.327 26.1259 138.286 26.2069 139.056 25.8019C139.947 25.316 140.635 25.316 140.635 25.8424C140.635 26.0044 140.109 26.5714 139.42 27.0573C138.772 27.5433 137.355 28.7582 136.261 29.7706C135.208 30.783 133.791 31.8764 133.143 32.2408C132.293 32.7268 130.106 34.7111 124.679 40.1376C120.67 44.1467 117.107 47.5889 116.742 47.8319C116.418 48.0344 115.73 48.3583 115.203 48.4798C114.393 48.6823 114.11 48.6418 112.936 48.3178C109.372 47.2244 106.132 44.0657 104.796 40.2996C104.31 38.9227 104.188 38.7607 103.824 39.0442C103.702 39.1657 102.326 39.8946 100.868 40.7045C97.628 42.4054 96.1701 43.4178 95.2792 44.3897C94.0643 45.7666 94.0643 45.8881 95.2792 47.3054C95.8462 47.9939 97.061 49.6137 97.9115 50.8691C98.8024 52.1245 100.139 54.0278 100.908 55.0402C102.245 56.7815 102.285 56.903 101.961 57.2675C101.637 57.5915 101.718 57.7534 103.257 60.1022C106.173 64.5163 108.117 69.0519 107.793 70.7122C107.59 71.8056 106.294 73.1015 104.512 74.0329C101.111 75.7743 98.2759 76.5032 87.4634 78.4875C80.1336 79.8239 76.9344 80.5123 75.4361 81.1198C74.8691 81.3627 74.7881 81.4842 74.7476 82.2132C74.7476 82.8206 74.4237 83.5495 73.3708 85.2909C71.7104 88.0446 71.346 89.1785 70.941 92.5802C70.536 96.2249 69.9286 97.2373 68.3492 96.8323C67.2153 96.5488 67.1343 96.1844 65.231 77.7991C65.0285 75.8958 65.231 75.4098 66.3244 74.8024C67.0128 74.4784 67.4988 74.3974 69.5236 74.3974C71.265 74.3974 71.9129 74.4379 71.9939 74.6404C72.1154 75.0048 73.5732 74.9643 75.2336 74.5189C76.8534 74.0734 78.7163 73.1825 81.227 71.6842C83.7378 70.1453 87.6659 68.323 89.2858 67.9585L90.7436 67.594L89.3668 66.8246C88.5973 66.4196 87.6254 65.8122 87.18 65.4882C86.37 64.9213 86.3296 64.9213 85.5196 65.2452L84.7097 65.5692L81.7535 63.5444L78.7973 61.5196L77.3799 62.8965C76.084 64.1923 74.3022 65.6907 73.7352 66.0147C73.6137 66.0957 73.3708 66.0552 73.2088 65.9337C72.8038 65.6097 72.8443 65.5692 68.1872 69.9833C60.574 77.1916 56.8078 79.9049 51.6243 81.7677C50.6524 82.0917 48.7491 83.0231 47.4127 83.7925C41.8647 86.8702 32.915 92.6612 31.9431 93.6736Z" fill="#1A2279"/>
<path d="M4.76 154V106.4H26.52C30.872 106.4 34.612 107.103 37.74 108.508C40.9133 109.913 43.3613 111.953 45.084 114.628C46.8067 117.257 47.668 120.385 47.668 124.012C47.668 127.593 46.8067 130.699 45.084 133.328C43.3613 135.912 40.9133 137.907 37.74 139.312C34.612 140.672 30.872 141.352 26.52 141.352H12.24L18.224 135.708V154H4.76ZM34.204 154L22.372 136.66H36.72L48.62 154H34.204ZM18.224 137.136L12.24 130.948H25.704C28.5147 130.948 30.6 130.336 31.96 129.112C33.3653 127.888 34.068 126.188 34.068 124.012C34.068 121.791 33.3653 120.068 31.96 118.844C30.6 117.62 28.5147 117.008 25.704 117.008H12.24L18.224 110.82V137.136ZM77.0599 154.952C70.0333 154.952 64.5479 153.025 60.6039 149.172C56.6599 145.319 54.6879 139.856 54.6879 132.784V106.4H68.1519V132.376C68.1519 136.456 68.9453 139.38 70.5319 141.148C72.1639 142.916 74.3853 143.8 77.1959 143.8C80.0066 143.8 82.2053 142.916 83.7919 141.148C85.3786 139.38 86.1719 136.456 86.1719 132.376V106.4H99.4319V132.784C99.4319 139.856 97.4599 145.319 93.5159 149.172C89.5719 153.025 84.0866 154.952 77.0599 154.952ZM108.553 154V106.4H119.637L145.885 138.088H140.649V106.4H153.841V154H142.757L116.509 122.312H121.745V154H108.553Z" fill="#1A2279"/>
<path d="M12.446 184V165.538H5.136V160.2H26.454V165.538H19.178V184H12.446ZM28.962 184V160.2H35.694V184H28.962ZM52.3495 184.476C50.4682 184.476 48.7228 184.181 47.1135 183.592C45.5268 182.98 44.1442 182.119 42.9655 181.008C41.8095 179.897 40.9028 178.594 40.2455 177.098C39.5882 175.579 39.2595 173.913 39.2595 172.1C39.2595 170.287 39.5882 168.632 40.2455 167.136C40.9028 165.617 41.8095 164.303 42.9655 163.192C44.1442 162.081 45.5268 161.231 47.1135 160.642C48.7228 160.03 50.4682 159.724 52.3495 159.724C54.5482 159.724 56.5088 160.109 58.2315 160.88C59.9768 161.651 61.4275 162.761 62.5835 164.212L58.2995 168.088C57.5288 167.181 56.6788 166.49 55.7495 166.014C54.8429 165.538 53.8228 165.3 52.6895 165.3C51.7148 165.3 50.8195 165.459 50.0035 165.776C49.1875 166.093 48.4848 166.558 47.8955 167.17C47.3288 167.759 46.8755 168.473 46.5355 169.312C46.2182 170.151 46.0595 171.08 46.0595 172.1C46.0595 173.12 46.2182 174.049 46.5355 174.888C46.8755 175.727 47.3288 176.452 47.8955 177.064C48.4848 177.653 49.1875 178.107 50.0035 178.424C50.8195 178.741 51.7148 178.9 52.6895 178.9C53.8228 178.9 54.8429 178.662 55.7495 178.186C56.6788 177.71 57.5288 177.019 58.2995 176.112L62.5835 179.988C61.4275 181.416 59.9768 182.527 58.2315 183.32C56.5088 184.091 54.5482 184.476 52.3495 184.476ZM71.6031 178.73L71.2291 171.182L81.4631 160.2H88.8751L78.6751 171.25L74.9351 175.16L71.6031 178.73ZM65.5851 184V160.2H72.2491V184H65.5851ZM81.5651 184L73.8131 174.174L78.1991 169.482L89.3851 184H81.5651ZM97.3395 169.414H108.389V174.446H97.3395V169.414ZM97.8155 178.798H110.259V184H91.1515V160.2H109.817V165.402H97.8155V178.798ZM119.061 184V165.538H111.751V160.2H133.069V165.538H125.793V184H119.061ZM143.875 184.476C141.926 184.476 140.044 184.238 138.231 183.762C136.44 183.263 134.978 182.629 133.845 181.858L136.055 176.894C137.12 177.574 138.344 178.141 139.727 178.594C141.132 179.025 142.526 179.24 143.909 179.24C144.838 179.24 145.586 179.161 146.153 179.002C146.72 178.821 147.128 178.594 147.377 178.322C147.649 178.027 147.785 177.687 147.785 177.302C147.785 176.758 147.536 176.327 147.037 176.01C146.538 175.693 145.892 175.432 145.099 175.228C144.306 175.024 143.422 174.82 142.447 174.616C141.495 174.412 140.532 174.151 139.557 173.834C138.605 173.517 137.732 173.109 136.939 172.61C136.146 172.089 135.5 171.42 135.001 170.604C134.502 169.765 134.253 168.711 134.253 167.442C134.253 166.014 134.638 164.722 135.409 163.566C136.202 162.41 137.381 161.481 138.945 160.778C140.509 160.075 142.458 159.724 144.793 159.724C146.357 159.724 147.887 159.905 149.383 160.268C150.902 160.608 152.25 161.118 153.429 161.798L151.355 166.796C150.222 166.184 149.1 165.731 147.989 165.436C146.878 165.119 145.802 164.96 144.759 164.96C143.83 164.96 143.082 165.062 142.515 165.266C141.948 165.447 141.54 165.697 141.291 166.014C141.042 166.331 140.917 166.694 140.917 167.102C140.917 167.623 141.155 168.043 141.631 168.36C142.13 168.655 142.776 168.904 143.569 169.108C144.385 169.289 145.269 169.482 146.221 169.686C147.196 169.89 148.159 170.151 149.111 170.468C150.086 170.763 150.97 171.171 151.763 171.692C152.556 172.191 153.191 172.859 153.667 173.698C154.166 174.514 154.415 175.545 154.415 176.792C154.415 178.175 154.018 179.455 153.225 180.634C152.454 181.79 151.287 182.719 149.723 183.422C148.182 184.125 146.232 184.476 143.875 184.476Z" fill="#1A2279"/>
</svg>
